<svg width="95" height="45" viewBox="0 0 95 45" fill="none" xmlns="http://www.w3.org/2000/svg">
<rect x="0.5" y="1" width="94" height="43" rx="9.5" fill="url(#paint0_linear_195_7410)"/>
<rect x="0.5" y="1" width="94" height="43" rx="9.5" stroke="url(#paint1_linear_195_7410)"/>
<path d="M21.6172 22.1328C21.5495 22.5026 21.4922 22.8464 21.4453 23.1641C21.4036 23.4766 21.3828 23.7812 21.3828 24.0781C21.3828 24.401 21.4323 24.6875 21.5312 24.9375C21.6302 25.1875 21.8151 25.3854 22.0859 25.5312C22.362 25.6719 22.7578 25.7422 23.2734 25.7422H23.2891V27.5H23.2734C22.388 27.5 21.6823 27.3359 21.1562 27.0078C20.6354 26.6745 20.2448 26.1693 19.9844 25.4922C19.4062 26.2422 18.6198 26.7656 17.625 27.0625C16.6354 27.3542 15.4766 27.5 14.1484 27.5C12.8411 27.5 11.7839 27.3411 10.9766 27.0234C10.1745 26.7005 9.58854 26.2422 9.21875 25.6484C8.85417 25.0547 8.67188 24.349 8.67188 23.5312C8.67188 23.125 8.71094 22.6953 8.78906 22.2422C8.8724 21.7839 8.98958 21.3203 9.14062 20.8516L10.6953 21.2969C10.5755 21.6823 10.4818 22.0469 10.4141 22.3906C10.3516 22.7344 10.3203 23.0495 10.3203 23.3359C10.3203 23.8984 10.4557 24.3568 10.7266 24.7109C10.9974 25.0651 11.4323 25.3255 12.0312 25.4922C12.6302 25.6589 13.4245 25.7422 14.4141 25.7422C15.3776 25.7422 16.1901 25.6667 16.8516 25.5156C17.513 25.3646 18.0547 25.1328 18.4766 24.8203C18.9036 24.5026 19.237 24.1016 19.4766 23.6172C19.7161 23.1276 19.8906 22.5469 20 21.875L21.6172 22.1328ZM15.2109 21.0469L16.4844 19.7734L17.75 21.0469L16.4844 22.3203L15.2109 21.0469ZM12.4844 21.0469L13.7578 19.7734L15.0234 21.0469L13.7578 22.3203L12.4844 21.0469ZM26.7734 20.9531C26.9141 21.5469 27.0286 22.112 27.1172 22.6484C27.2057 23.1849 27.25 23.6823 27.25 24.1406C27.25 24.8177 27.1276 25.4089 26.8828 25.9141C26.6432 26.4193 26.2578 26.8099 25.7266 27.0859C25.1953 27.362 24.5 27.5 23.6406 27.5H23.2812C23.1875 27.5 23.1198 27.4401 23.0781 27.3203C23.0312 27.1953 23.0078 26.9609 23.0078 26.6172C23.0078 26.2786 23.0312 26.0495 23.0781 25.9297C23.1198 25.8047 23.1875 25.7422 23.2812 25.7422H23.6406C24.3177 25.7422 24.8021 25.5938 25.0938 25.2969C25.3906 25 25.5391 24.5599 25.5391 23.9766C25.5391 23.6484 25.4974 23.2682 25.4141 22.8359C25.3359 22.4036 25.237 21.9271 25.1172 21.4062L26.7734 20.9531ZM24.3672 30.2422L25.6406 28.9688L26.9062 30.2422L25.6406 31.5156L24.3672 30.2422ZM21.6406 30.2422L22.9141 28.9688L24.1797 30.2422L22.9141 31.5156L21.6406 30.2422ZM33.2734 25.7266C33.2474 25.3516 33.2005 24.9896 33.1328 24.6406C33.0703 24.2865 32.9792 23.9688 32.8594 23.6875C32.7448 23.401 32.5938 23.1745 32.4062 23.0078C32.224 22.8359 31.9974 22.75 31.7266 22.75C31.4297 22.75 31.1849 22.8464 30.9922 23.0391C30.7995 23.2266 30.6562 23.4714 30.5625 23.7734C30.4688 24.0703 30.4219 24.3854 30.4219 24.7188C30.4219 25.099 30.5365 25.3646 30.7656 25.5156C30.9948 25.6667 31.3333 25.7422 31.7812 25.7422C32.0312 25.7422 32.2839 25.7396 32.5391 25.7344C32.7943 25.7292 33.0391 25.7266 33.2734 25.7266ZM33.0625 27.5C32.8125 27.5 32.5625 27.5 32.3125 27.5C32.0677 27.5 31.8229 27.5 31.5781 27.5C30.7396 27.5 30.0781 27.2839 29.5938 26.8516C29.1094 26.4141 28.8672 25.7526 28.8672 24.8672C28.8672 24.4193 28.9245 23.9714 29.0391 23.5234C29.1536 23.0703 29.3281 22.6589 29.5625 22.2891C29.8021 21.9141 30.1042 21.6146 30.4688 21.3906C30.8333 21.1615 31.263 21.0469 31.7578 21.0469C32.3203 21.0469 32.7943 21.1797 33.1797 21.4453C33.5651 21.7109 33.875 22.0677 34.1094 22.5156C34.349 22.9635 34.5286 23.4661 34.6484 24.0234C34.7682 24.5807 34.8464 25.1536 34.8828 25.7422H35.6094V27.5H34.8203C34.6536 28.5781 34.1016 29.487 33.1641 30.2266C32.2266 30.9661 30.9453 31.5755 29.3203 32.0547L28.5938 30.4453C29.8385 30.1016 30.8464 29.6797 31.6172 29.1797C32.3932 28.6849 32.875 28.125 33.0625 27.5ZM43.8438 18.1094L45.1172 16.8359L46.3828 18.1094L45.1172 19.3828L43.8438 18.1094ZM38 22.3047H39.7578L39.7656 23.5859C39.7708 23.862 39.7969 24.0807 39.8438 24.2422C39.8906 24.4036 39.9531 24.5312 40.0312 24.625C40.1094 24.7135 40.2031 24.7943 40.3125 24.8672C40.8125 24.0234 41.3255 23.3229 41.8516 22.7656C42.3828 22.2083 42.9219 21.7943 43.4688 21.5234C44.0208 21.2474 44.5755 21.1094 45.1328 21.1094C45.7526 21.1094 46.2865 21.2448 46.7344 21.5156C47.1875 21.7865 47.5339 22.1536 47.7734 22.6172C48.013 23.0807 48.1328 23.599 48.1328 24.1719C48.1328 24.4219 48.1016 24.6536 48.0391 24.8672C47.9818 25.0755 47.8984 25.263 47.7891 25.4297C47.9766 25.5339 48.1875 25.612 48.4219 25.6641C48.6615 25.7161 48.9349 25.7422 49.2422 25.7422H49.25V27.5H49.2422C48.7526 27.5 48.3021 27.4323 47.8906 27.2969C47.4844 27.1615 47.151 26.9531 46.8906 26.6719C46.4427 26.974 45.8984 27.1875 45.2578 27.3125C44.6224 27.4375 43.9375 27.5 43.2031 27.5C42.125 27.5 41.2135 27.3646 40.4688 27.0938C39.724 26.8229 39.1901 26.4245 38.8672 25.8984C38.7578 26.237 38.5573 26.526 38.2656 26.7656C37.974 27.0052 37.6276 27.1875 37.2266 27.3125C36.8255 27.4375 36.4036 27.5 35.9609 27.5H35.6094C35.5156 27.5 35.4479 27.4401 35.4062 27.3203C35.3594 27.1953 35.3359 26.9609 35.3359 26.6172C35.3359 26.2786 35.3594 26.0495 35.4062 25.9297C35.4479 25.8047 35.5156 25.7422 35.6094 25.7422H35.9609C36.5391 25.7422 36.974 25.6667 37.2656 25.5156C37.5573 25.3594 37.7526 25.1224 37.8516 24.8047C37.9505 24.4818 38 24.0651 38 23.5547V22.3047ZM44.8359 22.8359C44.5443 22.8359 44.224 22.9193 43.875 23.0859C43.5312 23.2526 43.1615 23.5286 42.7656 23.9141C42.3698 24.2943 41.9479 24.8125 41.5 25.4688C41.7448 25.5677 42.026 25.638 42.3438 25.6797C42.6615 25.7214 43.0026 25.7422 43.3672 25.7422C43.737 25.7422 44.0911 25.7188 44.4297 25.6719C44.7734 25.6198 45.0781 25.5339 45.3438 25.4141C45.6146 25.2943 45.8281 25.1328 45.9844 24.9297C46.1406 24.7266 46.2188 24.4688 46.2188 24.1562C46.2188 23.7708 46.0938 23.4557 45.8438 23.2109C45.5938 22.9609 45.2578 22.8359 44.8359 22.8359ZM51.8672 23.5938C51.8672 23.9271 51.9453 24.2161 52.1016 24.4609C52.2578 24.7057 52.4635 24.8932 52.7188 25.0234C52.9792 25.1536 53.263 25.2188 53.5703 25.2188C53.6693 25.2188 53.8021 25.2083 53.9688 25.1875C54.1406 25.1667 54.3125 25.138 54.4844 25.1016L57.0234 24.6172L57.3438 26.3516L53.1484 27.1562C52.5599 27.2656 51.9583 27.3516 51.3438 27.4141C50.7292 27.4714 50.1458 27.5 49.5938 27.5H49.25C49.151 27.5 49.0807 27.4297 49.0391 27.2891C48.9974 27.1484 48.9766 26.9245 48.9766 26.6172C48.9766 26.3151 48.9974 26.0938 49.0391 25.9531C49.0807 25.8125 49.151 25.7422 49.25 25.7422H49.5234C49.7734 25.7422 50.0234 25.7344 50.2734 25.7188C50.5286 25.6979 50.8125 25.6667 51.125 25.625C50.8281 25.4115 50.5833 25.1406 50.3906 24.8125C50.2031 24.4792 50.1094 24.0833 50.1094 23.625C50.1094 22.8802 50.2786 22.2266 50.6172 21.6641C50.9557 21.0964 51.4036 20.6536 51.9609 20.3359C52.5234 20.013 53.138 19.8516 53.8047 19.8516C54.4089 19.8516 54.9375 19.9609 55.3906 20.1797C55.8438 20.3984 56.2839 20.7292 56.7109 21.1719L55.75 22.4453C55.4792 22.1745 55.1875 21.9688 54.875 21.8281C54.5625 21.6875 54.2214 21.6172 53.8516 21.6172C53.5026 21.6172 53.1771 21.6953 52.875 21.8516C52.5729 22.0026 52.3281 22.2266 52.1406 22.5234C51.9583 22.8203 51.8672 23.1771 51.8672 23.5938Z" fill="white"/>
<path d="M77 22.5C79.3012 22.5 81.1667 20.6345 81.1667 18.3333C81.1667 16.0321 79.3012 14.1667 77 14.1667C74.6989 14.1667 72.8334 16.0321 72.8334 18.3333C72.8334 20.6345 74.6989 22.5 77 22.5Z" stroke="white" stroke-width="1.5" stroke-linecap="round" stroke-linejoin="round"/>
<path d="M69.8417 30.8333C69.8417 27.6083 73.05 25 77 25C77.8 25 78.575 25.1083 79.3 25.3083" stroke="white" stroke-width="1.5" stroke-linecap="round" stroke-linejoin="round"/>
<path d="M85.3333 27.5C85.3333 27.7667 85.3 28.025 85.2333 28.275C85.1583 28.6083 85.025 28.9333 84.85 29.2167C84.275 30.1833 83.2166 30.8333 82 30.8333C81.1416 30.8333 80.3666 30.5083 79.7833 29.975C79.5333 29.7583 79.3166 29.5 79.1499 29.2167C78.8416 28.7167 78.6666 28.125 78.6666 27.5C78.6666 26.6 79.025 25.775 79.6083 25.175C80.2166 24.55 81.0666 24.1667 82 24.1667C82.9833 24.1667 83.875 24.5917 84.475 25.275C85.0083 25.8667 85.3333 26.65 85.3333 27.5Z" stroke="white" stroke-width="1.5" stroke-miterlimit="10" stroke-linecap="round" stroke-linejoin="round"/>
<path d="M83.2416 27.4833H80.7583" stroke="white" stroke-width="1.5" stroke-miterlimit="10" stroke-linecap="round" stroke-linejoin="round"/>
<path d="M82 26.2667V28.7583" stroke="white" stroke-width="1.5" stroke-miterlimit="10" stroke-linecap="round" stroke-linejoin="round"/>
<defs>
<linearGradient id="paint0_linear_195_7410" x1="47.5" y1="44.1" x2="47.5" y2="0.099999" gradientUnits="userSpaceOnUse">
<stop stop-color="#AE1B1B"/>
<stop offset="1" stop-color="#ED0800" stop-opacity="0.7"/>
</linearGradient>
<linearGradient id="paint1_linear_195_7410" x1="47.5" y1="44.1" x2="47.5" y2="0.099999" gradientUnits="userSpaceOnUse">
<stop stop-color="#6F0000"/>
<stop offset="1" stop-color="#960C0C" stop-opacity="0.7"/>
</linearGradient>
</defs>
</svg>