<svg width="31" height="31" viewBox="0 0 31 31" fill="none" xmlns="http://www.w3.org/2000/svg">
<path d="M15.0254 17.9995H16.2754C17.6504 17.9995 18.7754 16.8745 18.7754 15.4995V2.99951H7.52539C5.65039 2.99951 4.0129 4.037 3.1629 5.562" stroke="#CB504E" stroke-width="1.5" stroke-linecap="round" stroke-linejoin="round"/>
<path d="M2.52539 21.7495C2.52539 23.8245 4.20039 25.4995 6.27539 25.4995H7.52539C7.52539 24.1245 8.65039 22.9995 10.0254 22.9995C11.4004 22.9995 12.5254 24.1245 12.5254 25.4995H17.5254C17.5254 24.1245 18.6504 22.9995 20.0254 22.9995C21.4004 22.9995 22.5254 24.1245 22.5254 25.4995H23.7754C25.8504 25.4995 27.5254 23.8245 27.5254 21.7495V17.9995H23.7754C23.0879 17.9995 22.5254 17.437 22.5254 16.7495V12.9995C22.5254 12.312 23.0879 11.7495 23.7754 11.7495H25.3879L23.2504 8.01202C22.8004 7.23702 21.9754 6.74951 21.0754 6.74951H18.7754V15.4995C18.7754 16.8745 17.6504 17.9995 16.2754 17.9995H15.0254" stroke="#CB504E" stroke-width="1.5" stroke-linecap="round" stroke-linejoin="round"/>
<path d="M10.0254 27.9995C11.4061 27.9995 12.5254 26.8802 12.5254 25.4995C12.5254 24.1188 11.4061 22.9995 10.0254 22.9995C8.64468 22.9995 7.52539 24.1188 7.52539 25.4995C7.52539 26.8802 8.64468 27.9995 10.0254 27.9995Z" stroke="#CB504E" stroke-width="1.5" stroke-linecap="round" stroke-linejoin="round"/>
<path d="M20.0254 27.9995C21.4061 27.9995 22.5254 26.8802 22.5254 25.4995C22.5254 24.1188 21.4061 22.9995 20.0254 22.9995C18.6447 22.9995 17.5254 24.1188 17.5254 25.4995C17.5254 26.8802 18.6447 27.9995 20.0254 27.9995Z" stroke="#CB504E" stroke-width="1.5" stroke-linecap="round" stroke-linejoin="round"/>
<path d="M27.5254 15.4995V17.9995H23.7754C23.0879 17.9995 22.5254 17.437 22.5254 16.7495V12.9995C22.5254 12.312 23.0879 11.7495 23.7754 11.7495H25.3879L27.5254 15.4995Z" stroke="#CB504E" stroke-width="1.5" stroke-linecap="round" stroke-linejoin="round"/>
<path d="M2.52539 10.4995H10.0254" stroke="#CB504E" stroke-width="1.5" stroke-linecap="round" stroke-linejoin="round"/>
<path d="M2.52539 14.2495H7.52539" stroke="#CB504E" stroke-width="1.5" stroke-linecap="round" stroke-linejoin="round"/>
<path d="M2.52539 17.9995H5.02539" stroke="#CB504E" stroke-width="1.5" stroke-linecap="round" stroke-linejoin="round"/>
</svg>