<svg width="20" height="21" viewBox="0 0 20 21" fill="none" xmlns="http://www.w3.org/2000/svg">
<path d="M18.3083 15.775C18.3083 16.075 18.2416 16.3833 18.1 16.6833C17.9583 16.9833 17.775 17.2667 17.5333 17.5333C17.125 17.9833 16.675 18.3083 16.1666 18.5167C15.6666 18.725 15.125 18.8333 14.5416 18.8333C13.6916 18.8333 12.7833 18.6333 11.825 18.225C10.8666 17.8167 9.90829 17.2667 8.95829 16.575C7.99996 15.875 7.09163 15.1 6.22496 14.2417C5.36663 13.375 4.59163 12.4667 3.89996 11.5167C3.21663 10.5667 2.66663 9.61667 2.26663 8.675C1.86663 7.725 1.66663 6.81667 1.66663 5.95C1.66663 5.38333 1.76663 4.84167 1.96663 4.34167C2.16663 3.83333 2.48329 3.36667 2.92496 2.95C3.45829 2.425 4.04163 2.16667 4.65829 2.16667C4.89163 2.16667 5.12496 2.21667 5.33329 2.31667C5.54996 2.41667 5.74163 2.56667 5.89163 2.78333L7.82496 5.50833C7.97496 5.71667 8.08329 5.90833 8.15829 6.09167C8.23329 6.26667 8.27496 6.44167 8.27496 6.6C8.27496 6.8 8.21663 7 8.09996 7.19167C7.99163 7.38333 7.83329 7.58333 7.63329 7.78333L6.99996 8.44167C6.90829 8.53333 6.86663 8.64167 6.86663 8.775C6.86663 8.84167 6.87496 8.9 6.89163 8.96667C6.91663 9.03333 6.94163 9.08333 6.95829 9.13333C7.10829 9.40833 7.36663 9.76667 7.73329 10.2C8.10829 10.6333 8.50829 11.075 8.94163 11.5167C9.39163 11.9583 9.82496 12.3667 10.2666 12.7417C10.7 13.1083 11.0583 13.3583 11.3416 13.5083C11.3833 13.525 11.4333 13.55 11.4916 13.575C11.5583 13.6 11.625 13.6083 11.7 13.6083C11.8416 13.6083 11.95 13.5583 12.0416 13.4667L12.675 12.8417C12.8833 12.6333 13.0833 12.475 13.275 12.375C13.4666 12.2583 13.6583 12.2 13.8666 12.2C14.025 12.2 14.1916 12.2333 14.375 12.3083C14.5583 12.3833 14.75 12.4917 14.9583 12.6333L17.7166 14.5917C17.9333 14.7417 18.0833 14.9167 18.175 15.125C18.2583 15.3333 18.3083 15.5417 18.3083 15.775Z" stroke="#FFFEFE" stroke-width="1.5" stroke-miterlimit="10"/>
<path d="M15.4167 8C15.4167 7.5 15.025 6.73334 14.4417 6.10834C13.9083 5.53334 13.2 5.08334 12.5 5.08334" stroke="#FFFEFE" stroke-width="1.5" stroke-linecap="round" stroke-linejoin="round"/>
<path d="M18.3333 8C18.3333 4.775 15.725 2.16667 12.5 2.16667" stroke="#FFFEFE" stroke-width="1.5" stroke-linecap="round" stroke-linejoin="round"/>
</svg>