<svg width="20" height="21" viewBox="0 0 20 21" fill="none" xmlns="http://www.w3.org/2000/svg">
<path d="M11.1917 13H3.66666C2.15 13 1.18333 11.375 1.91666 10.0417L3.85833 6.50834L5.675 3.2C6.43333 1.825 8.41666 1.825 9.17499 3.2L11 6.50834L11.875 8.10001L12.9417 10.0417C13.675 11.375 12.7083 13 11.1917 13Z" stroke="#FFFEFE" stroke-width="1.5" stroke-linecap="round" stroke-linejoin="round"/>
<path d="M18.3333 13.4167C18.3333 16.4083 15.9083 18.8333 12.9167 18.8333C9.925 18.8333 7.5 16.4083 7.5 13.4167C7.5 13.275 7.50833 13.1417 7.51667 13H11.1917C12.7083 13 13.675 11.375 12.9417 10.0417L11.875 8.1C12.2083 8.03333 12.5583 8 12.9167 8C15.9083 8 18.3333 10.425 18.3333 13.4167Z" stroke="#FFFEFE" stroke-width="1.5" stroke-linecap="round" stroke-linejoin="round"/>
</svg>