<svg width="206" height="56" viewBox="0 0 206 56" fill="none" xmlns="http://www.w3.org/2000/svg">
<rect x="0.5" y="1" width="205" height="54" rx="9.5" fill="url(#paint0_linear_279_549)"/>
<rect x="0.5" y="1" width="205" height="54" rx="9.5" stroke="url(#paint1_linear_279_549)"/>
<path d="M22.6641 22.4219L24.168 23.916L22.6641 25.4297L21.1797 23.916L22.6641 22.4219ZM19.4023 22.4219L20.9062 23.916L19.4023 25.4297L17.9082 23.916L19.4023 22.4219ZM26.7168 26.3184L28.6992 26.0742L28.8848 28.584C28.9173 29.1504 29.0736 29.5736 29.3535 29.8535C29.6335 30.127 30.0664 30.2637 30.6523 30.2637H30.8867V32.5H30.6523C29.9167 32.5 29.3047 32.3633 28.8164 32.0898C28.3346 31.8099 27.9375 31.3932 27.625 30.8398C27.0651 31.4323 26.362 31.8587 25.5156 32.1191C24.6693 32.373 23.5267 32.5 22.0879 32.5H20.457C19.2721 32.5 18.2109 32.4251 17.2734 32.2754C16.3424 32.1257 15.5514 31.875 14.9004 31.5234C14.2493 31.1719 13.7513 30.6999 13.4062 30.1074C13.0677 29.515 12.8984 28.7695 12.8984 27.8711C12.8984 27.3633 12.9538 26.8685 13.0645 26.3867C13.1816 25.8984 13.3281 25.4395 13.5039 25.0098L15.3789 25.7129C15.2747 26.0059 15.1771 26.3346 15.0859 26.6992C15.0013 27.0573 14.959 27.3991 14.959 27.7246C14.959 28.2585 15.0859 28.6914 15.3398 29.0234C15.6003 29.3555 15.9681 29.6126 16.4434 29.7949C16.9251 29.9707 17.5013 30.0944 18.1719 30.166C18.849 30.2311 19.6107 30.2637 20.457 30.2637H22.0879C23.084 30.2637 23.9336 30.2083 24.6367 30.0977C25.3398 29.987 25.877 29.7852 26.248 29.4922C26.6257 29.1992 26.8145 28.7793 26.8145 28.2324C26.8145 27.9395 26.8047 27.6204 26.7852 27.2754C26.7656 26.9238 26.7428 26.6048 26.7168 26.3184ZM32.0684 32.5H30.4961V30.2637H32.0684C32.6478 30.2637 33.0417 30.0911 33.25 29.7461C33.4648 29.401 33.5723 28.9616 33.5723 28.4277C33.5723 27.9915 33.5267 27.526 33.4355 27.0312C33.3444 26.5299 33.25 26.0286 33.1523 25.5273L35.2227 25C35.3398 25.5599 35.431 26.1133 35.4961 26.6602C35.5677 27.207 35.6035 27.7279 35.6035 28.2227C35.6035 29.043 35.4928 29.7754 35.2715 30.4199C35.0501 31.0645 34.6823 31.5723 34.168 31.9434C33.6536 32.3145 32.9538 32.5 32.0684 32.5ZM33.2402 20.4492L34.8027 22.0117L33.2402 23.5742L31.6777 22.0117L33.2402 20.4492ZM37.9375 18.9453H40.0176V28.1055C40.0176 28.9258 40.1543 29.4922 40.4277 29.8047C40.7077 30.1107 41.1797 30.2637 41.8438 30.2637H42.0879V32.5H41.8438C40.5026 32.5 39.5163 32.1517 38.8848 31.4551C38.2533 30.752 37.9375 29.668 37.9375 28.2031V18.9453ZM44.5781 23.2227C45.0599 23.5417 45.5384 23.8639 46.0137 24.1895C46.4889 24.515 46.9349 24.8503 47.3516 25.1953C47.7682 25.5404 48.1361 25.9049 48.4551 26.2891C48.7806 26.6732 49.0345 27.0801 49.2168 27.5098C49.3991 27.9329 49.4902 28.3854 49.4902 28.8672C49.4902 29.7721 49.2852 30.4883 48.875 31.0156C48.4648 31.543 47.8561 31.9238 47.0488 32.1582C46.248 32.3861 45.2617 32.5 44.0898 32.5H41.707V30.2637H44.0801C44.8613 30.2637 45.4961 30.2246 45.9844 30.1465C46.4792 30.0618 46.8438 29.9154 47.0781 29.707C47.319 29.4987 47.4395 29.2057 47.4395 28.8281C47.4395 28.5612 47.3353 28.2878 47.127 28.0078C46.9251 27.7214 46.6549 27.4349 46.3164 27.1484C45.9779 26.8555 45.6068 26.569 45.2031 26.2891C44.7995 26.0026 44.3926 25.7194 43.9824 25.4395C43.5723 25.1595 43.1947 24.8861 42.8496 24.6191C42.6152 24.4368 42.4329 24.2122 42.3027 23.9453C42.179 23.6784 42.1172 23.4049 42.1172 23.125C42.1172 22.819 42.1953 22.5293 42.3516 22.2559C42.5143 21.9759 42.7617 21.7708 43.0938 21.6406L50.3398 18.6914V20.8887L44.5781 23.2227ZM54.3926 18.9453V32.4902H52.3125V18.9453H54.3926ZM64.3145 30.293C65.0241 30.293 65.6458 30.2344 66.1797 30.1172C66.7201 30 67.14 29.8177 67.4395 29.5703C67.7389 29.3164 67.8887 28.9811 67.8887 28.5645C67.8887 28.1543 67.7227 27.7246 67.3906 27.2754C67.0651 26.8262 66.5931 26.3704 65.9746 25.9082C65.3626 25.4395 64.6172 24.9772 63.7383 24.5215L64.7051 22.5488C65.4733 22.9329 66.1764 23.3431 66.8145 23.7793C67.4525 24.2155 68.0026 24.681 68.4648 25.1758C68.9271 25.6706 69.2819 26.1947 69.5293 26.748C69.7832 27.2949 69.9102 27.8776 69.9102 28.4961C69.9102 29.4141 69.7018 30.1693 69.2852 30.7617C68.875 31.3477 68.2663 31.7806 67.459 32.0605C66.6517 32.3405 65.6523 32.4805 64.4609 32.4805C63.9922 32.4805 63.5462 32.4609 63.123 32.4219C62.7064 32.3828 62.306 32.321 61.9219 32.2363V30.0098C62.3451 30.0944 62.765 30.1628 63.1816 30.2148C63.5983 30.2669 63.9759 30.293 64.3145 30.293ZM69.7051 37.7832L68.9531 35.7715C69.9622 35.5501 70.7923 35.2344 71.4434 34.8242C72.1009 34.4206 72.5892 33.9128 72.9082 33.3008C73.2272 32.6953 73.3867 31.9759 73.3867 31.1426C73.3867 30.5697 73.3118 29.9512 73.1621 29.2871C73.0124 28.623 72.8301 27.972 72.6152 27.334L74.6758 26.6504C74.9167 27.334 75.099 28.0371 75.2227 28.7598C75.3529 29.4824 75.418 30.1823 75.418 30.8594C75.418 32.0703 75.1999 33.151 74.7637 34.1016C74.3275 35.0521 73.6862 35.8431 72.8398 36.4746C71.9935 37.1061 70.9486 37.5423 69.7051 37.7832ZM81.9707 37.7832L81.2188 35.7715C82.2279 35.5501 83.0579 35.2344 83.709 34.8242C84.3665 34.4206 84.8548 33.9128 85.1738 33.3008C85.4928 32.6953 85.6523 31.9759 85.6523 31.1426C85.6523 30.5697 85.5775 29.9512 85.4277 29.2871C85.278 28.623 85.0957 27.972 84.8809 27.334L86.9414 26.6504C87.1823 27.334 87.3646 28.0371 87.4883 28.7598C87.6185 29.4824 87.6836 30.1823 87.6836 30.8594C87.6836 32.0703 87.4655 33.151 87.0293 34.1016C86.5931 35.0521 85.9518 35.8431 85.1055 36.4746C84.2591 37.1061 83.2142 37.5423 81.9707 37.7832ZM91.873 30.293C92.5827 30.293 93.2044 30.2344 93.7383 30.1172C94.2786 30 94.6986 29.8177 94.998 29.5703C95.2975 29.3164 95.4473 28.9811 95.4473 28.5645C95.4473 28.1543 95.2812 27.7246 94.9492 27.2754C94.6237 26.8262 94.1517 26.3704 93.5332 25.9082C92.9212 25.4395 92.1758 24.9772 91.2969 24.5215L92.2637 22.5488C93.0319 22.9329 93.735 23.3431 94.373 23.7793C95.0111 24.2155 95.5612 24.681 96.0234 25.1758C96.4857 25.6706 96.8405 26.1947 97.0879 26.748C97.3418 27.2949 97.4688 27.8776 97.4688 28.4961C97.4688 29.4141 97.2604 30.1693 96.8438 30.7617C96.4336 31.3477 95.8249 31.7806 95.0176 32.0605C94.2103 32.3405 93.2109 32.4805 92.0195 32.4805C91.5508 32.4805 91.1048 32.4609 90.6816 32.4219C90.265 32.3828 89.8646 32.321 89.4805 32.2363V30.0098C89.9036 30.0944 90.3236 30.1628 90.7402 30.2148C91.1569 30.2669 91.5345 30.293 91.873 30.293ZM114.227 22.4219L115.73 23.916L114.227 25.4297L112.742 23.916L114.227 22.4219ZM110.965 22.4219L112.469 23.916L110.965 25.4297L109.471 23.916L110.965 22.4219ZM118.279 26.3184L120.262 26.0742L120.447 28.584C120.48 29.1504 120.636 29.5736 120.916 29.8535C121.196 30.127 121.629 30.2637 122.215 30.2637H122.449V32.5H122.215C121.479 32.5 120.867 32.3633 120.379 32.0898C119.897 31.8099 119.5 31.3932 119.188 30.8398C118.628 31.4323 117.924 31.8587 117.078 32.1191C116.232 32.373 115.089 32.5 113.65 32.5H112.02C110.835 32.5 109.773 32.4251 108.836 32.2754C107.905 32.1257 107.114 31.875 106.463 31.5234C105.812 31.1719 105.314 30.6999 104.969 30.1074C104.63 29.515 104.461 28.7695 104.461 27.8711C104.461 27.3633 104.516 26.8685 104.627 26.3867C104.744 25.8984 104.891 25.4395 105.066 25.0098L106.941 25.7129C106.837 26.0059 106.74 26.3346 106.648 26.6992C106.564 27.0573 106.521 27.3991 106.521 27.7246C106.521 28.2585 106.648 28.6914 106.902 29.0234C107.163 29.3555 107.531 29.6126 108.006 29.7949C108.488 29.9707 109.064 30.0944 109.734 30.166C110.411 30.2311 111.173 30.2637 112.02 30.2637H113.65C114.646 30.2637 115.496 30.2083 116.199 30.0977C116.902 29.987 117.439 29.7852 117.811 29.4922C118.188 29.1992 118.377 28.7793 118.377 28.2324C118.377 27.9395 118.367 27.6204 118.348 27.2754C118.328 26.9238 118.305 26.6048 118.279 26.3184ZM122.039 30.2637H122.82V32.5H122.039V30.2637ZM125.574 33.916L127.078 35.4102L125.574 36.9238L124.09 35.4102L125.574 33.916ZM122.312 33.916L123.816 35.4102L122.312 36.9238L120.818 35.4102L122.312 33.916ZM124.158 32.5H122.586V30.2637H124.158C124.738 30.2637 125.132 30.0911 125.34 29.7461C125.555 29.401 125.662 28.9616 125.662 28.4277C125.662 27.9915 125.617 27.526 125.525 27.0312C125.434 26.5299 125.34 26.0286 125.242 25.5273L127.312 25C127.43 25.5599 127.521 26.1133 127.586 26.6602C127.658 27.207 127.693 27.7279 127.693 28.2227C127.693 29.043 127.583 29.7754 127.361 30.4199C127.14 31.0645 126.772 31.5723 126.258 31.9434C125.743 32.3145 125.044 32.5 124.158 32.5ZM132.967 24.9512C133.527 24.9512 134.031 25.0781 134.48 25.332C134.936 25.5794 135.33 25.9375 135.662 26.4062C136.001 26.875 136.264 27.4349 136.453 28.0859C136.642 28.737 136.753 29.4629 136.785 30.2637H137.771V32.5H136.609C136.421 33.3529 136.082 34.1309 135.594 34.834C135.112 35.5371 134.438 36.1393 133.572 36.6406C132.706 37.1419 131.609 37.5195 130.281 37.7734L129.529 35.7617C130.441 35.5794 131.248 35.3385 131.951 35.0391C132.654 34.7396 133.234 34.3783 133.689 33.9551C134.145 33.5319 134.454 33.0469 134.617 32.5H133.348C132.078 32.5 131.118 32.2396 130.467 31.7188C129.822 31.1979 129.5 30.3874 129.5 29.2871C129.5 28.8053 129.572 28.3105 129.715 27.8027C129.865 27.2949 130.086 26.8262 130.379 26.3965C130.672 25.9668 131.033 25.6185 131.463 25.3516C131.899 25.0846 132.4 24.9512 132.967 24.9512ZM133.289 30.2637H134.803C134.77 29.7884 134.708 29.362 134.617 28.9844C134.533 28.6003 134.415 28.2715 134.266 27.998C134.116 27.7246 133.93 27.5163 133.709 27.373C133.494 27.2298 133.24 27.1582 132.947 27.1582C132.576 27.1582 132.283 27.2754 132.068 27.5098C131.86 27.7376 131.714 28.0111 131.629 28.3301C131.544 28.6491 131.502 28.9388 131.502 29.1992C131.502 29.6094 131.652 29.8893 131.951 30.0391C132.251 30.1888 132.697 30.2637 133.289 30.2637ZM149.139 19.3945L150.701 20.957L149.139 22.5195L147.576 20.957L149.139 19.3945ZM149.617 26.4062C149.233 26.4062 148.842 26.4974 148.445 26.6797C148.048 26.862 147.648 27.1224 147.244 27.4609C146.847 27.7995 146.45 28.2064 146.053 28.6816C145.662 29.1569 145.278 29.6842 144.9 30.2637H146.18C146.993 30.2637 147.723 30.2279 148.367 30.1562C149.018 30.0846 149.572 29.9707 150.027 29.8145C150.483 29.6517 150.831 29.4368 151.072 29.1699C151.32 28.903 151.443 28.5742 151.443 28.1836C151.443 27.6628 151.274 27.2363 150.936 26.9043C150.597 26.5723 150.158 26.4062 149.617 26.4062ZM146.15 32.5H145.633C144.799 32.5 144.077 32.4512 143.465 32.3535C142.859 32.2493 142.352 32.0931 141.941 31.8848C141.531 31.6764 141.199 31.4193 140.945 31.1133C140.574 31.5755 140.145 31.9238 139.656 32.1582C139.174 32.3861 138.553 32.5 137.791 32.5H137.391L137.4 30.2637H137.791C138.644 30.2637 139.214 30.1009 139.5 29.7754C139.793 29.4499 139.939 28.9388 139.939 28.2422C139.939 27.9036 139.926 27.5814 139.9 27.2754C139.881 26.9629 139.861 26.6439 139.842 26.3184L141.824 26.084L141.99 28.584C142.016 28.9421 142.088 29.2513 142.205 29.5117C142.329 29.7721 142.511 29.9121 142.752 29.9316C143.273 29.0527 143.8 28.2617 144.334 27.5586C144.874 26.8555 145.424 26.2533 145.984 25.752C146.544 25.2507 147.117 24.8665 147.703 24.5996C148.296 24.3327 148.908 24.1992 149.539 24.1992C150.32 24.1992 151.01 24.3685 151.609 24.707C152.215 25.0391 152.687 25.4948 153.025 26.0742C153.364 26.6471 153.533 27.3047 153.533 28.0469C153.533 28.4049 153.484 28.7695 153.387 29.1406C153.289 29.5117 153.139 29.8405 152.938 30.127C153.055 30.153 153.188 30.1758 153.338 30.1953C153.488 30.2148 153.67 30.2311 153.885 30.2441C154.106 30.2572 154.373 30.2637 154.686 30.2637H154.979V32.5H154.695C153.888 32.5 153.217 32.4089 152.684 32.2266C152.156 32.0378 151.697 31.7969 151.307 31.5039C150.714 31.8099 149.975 32.054 149.09 32.2363C148.211 32.4121 147.231 32.5 146.15 32.5ZM157.215 30.2637C157.052 30.0293 156.906 29.7624 156.775 29.4629C156.645 29.1634 156.544 28.8477 156.473 28.5156C156.401 28.1836 156.365 27.8678 156.365 27.5684C156.365 26.8327 156.551 26.1654 156.922 25.5664C157.299 24.9609 157.798 24.4792 158.416 24.1211C159.035 23.7565 159.708 23.5742 160.438 23.5742C161.049 23.5742 161.642 23.6882 162.215 23.916C162.794 24.1439 163.39 24.4694 164.002 24.8926L163.191 26.7188C162.723 26.4453 162.277 26.2272 161.854 26.0645C161.43 25.8952 161.007 25.8105 160.584 25.8105C160.226 25.8105 159.881 25.8854 159.549 26.0352C159.223 26.1849 158.956 26.3965 158.748 26.6699C158.54 26.9368 158.436 27.2591 158.436 27.6367C158.436 28.0273 158.523 28.3854 158.699 28.7109C158.875 29.0299 159.07 29.2904 159.285 29.4922C159.507 29.6875 159.669 29.8047 159.773 29.8438C159.806 29.8438 159.845 29.8405 159.891 29.834C159.936 29.8275 159.985 29.8177 160.037 29.8047L164.441 28.75V30.9863C163.628 31.2337 162.84 31.4518 162.078 31.6406C161.316 31.8294 160.574 31.9889 159.852 32.1191C159.129 32.2493 158.416 32.347 157.713 32.4121C157.016 32.4707 156.32 32.5 155.623 32.5H154.598V30.2637H157.215Z" fill="white"/>
<path d="M184 28C186.301 28 188.167 26.1345 188.167 23.8333C188.167 21.5321 186.301 19.6667 184 19.6667C181.699 19.6667 179.833 21.5321 179.833 23.8333C179.833 26.1345 181.699 28 184 28Z" stroke="white" stroke-width="1.5" stroke-linecap="round" stroke-linejoin="round"/>
<path d="M176.842 36.3333C176.842 33.1083 180.05 30.5 184 30.5C184.8 30.5 185.575 30.6083 186.3 30.8083" stroke="white" stroke-width="1.5" stroke-linecap="round" stroke-linejoin="round"/>
<path d="M192.333 33C192.333 33.2667 192.3 33.525 192.233 33.775C192.158 34.1083 192.025 34.4333 191.85 34.7167C191.275 35.6833 190.217 36.3333 189 36.3333C188.142 36.3333 187.367 36.0083 186.783 35.475C186.533 35.2583 186.317 35 186.15 34.7167C185.842 34.2167 185.667 33.625 185.667 33C185.667 32.1 186.025 31.275 186.608 30.675C187.217 30.05 188.067 29.6667 189 29.6667C189.983 29.6667 190.875 30.0917 191.475 30.775C192.008 31.3667 192.333 32.15 192.333 33Z" stroke="white" stroke-width="1.5" stroke-miterlimit="10" stroke-linecap="round" stroke-linejoin="round"/>
<path d="M190.242 32.9833H187.758" stroke="white" stroke-width="1.5" stroke-miterlimit="10" stroke-linecap="round" stroke-linejoin="round"/>
<path d="M189 31.7667V34.2583" stroke="white" stroke-width="1.5" stroke-miterlimit="10" stroke-linecap="round" stroke-linejoin="round"/>
<defs>
<linearGradient id="paint0_linear_279_549" x1="103" y1="55" x2="103" y2="-1.29115e-06" gradientUnits="userSpaceOnUse">
<stop stop-color="#AE1B1B"/>
<stop offset="1" stop-color="#ED0800" stop-opacity="0.7"/>
</linearGradient>
<linearGradient id="paint1_linear_279_549" x1="103" y1="55" x2="103" y2="-1.29115e-06" gradientUnits="userSpaceOnUse">
<stop stop-color="#6F0000"/>
<stop offset="1" stop-color="#960C0C" stop-opacity="0.7"/>
</linearGradient>
</defs>
</svg>