<svg width="20" height="21" viewBox="0 0 20 21" fill="none" xmlns="http://www.w3.org/2000/svg">
<path d="M2.5083 9.85V13.5917C2.5083 17.3333 4.0083 18.8333 7.74997 18.8333H12.2416C15.9833 18.8333 17.4833 17.3333 17.4833 13.5917V9.85" stroke="#FFFEFE" stroke-width="1.5" stroke-linecap="round" stroke-linejoin="round"/>
<path d="M9.99999 10.5C11.525 10.5 12.65 9.25833 12.5 7.73333L11.95 2.16667H8.05832L7.49999 7.73333C7.34999 9.25833 8.47499 10.5 9.99999 10.5Z" stroke="#FFFEFE" stroke-width="1.5" stroke-linecap="round" stroke-linejoin="round"/>
<path d="M15.2583 10.5C16.9416 10.5 18.175 9.13333 18.0083 7.45833L17.775 5.16667C17.475 3 16.6416 2.16667 14.4583 2.16667H11.9166L12.5 8.00833C12.6416 9.38333 13.8833 10.5 15.2583 10.5Z" stroke="#FFFEFE" stroke-width="1.5" stroke-linecap="round" stroke-linejoin="round"/>
<path d="M4.70002 10.5C6.07502 10.5 7.31669 9.38333 7.45002 8.00833L7.63336 6.16667L8.03336 2.16667H5.49169C3.30836 2.16667 2.47502 3 2.17502 5.16667L1.95002 7.45833C1.78336 9.13333 3.01669 10.5 4.70002 10.5Z" stroke="#FFFEFE" stroke-width="1.5" stroke-linecap="round" stroke-linejoin="round"/>
<path d="M9.99996 14.6667C8.60829 14.6667 7.91663 15.3583 7.91663 16.75V18.8333H12.0833V16.75C12.0833 15.3583 11.3916 14.6667 9.99996 14.6667Z" stroke="#FFFEFE" stroke-width="1.5" stroke-linecap="round" stroke-linejoin="round"/>
</svg>