<svg width="316" height="138" viewBox="0 0 316 138" fill="none" xmlns="http://www.w3.org/2000/svg">
<path d="M232.177 27.2105C246.846 9.08451 194.234 -8.67612 159.669 9.79556C143.031 -6.78568 95.7308 2.20147 97.4032 21.822C89.4114 17.3803 74.2865 17.0523 61.7774 20.1722M283.391 28.7361C299.408 29.2272 314.659 37.7984 304.233 54.0529C320.59 55.7271 315.74 79.1526 306.44 79.9452C315.914 88.3413 304.054 101.146 291.496 106.047M18.4076 45.4847C12.9317 50.4617 11.3584 57.1466 19.9851 63.9926C1.31679 70.7216 -9.55985 93.8238 17.2161 104.98C13.1461 108.755 15.0618 114.018 22.898 116.929M54.9206 131.377C71.6268 137.691 103.456 138.985 123.156 127.925C141.046 135.642 150.578 136.713 165.38 124.326C170.372 135.362 207.131 138.948 223.423 122.145C235.055 126.919 251.447 126.834 262.785 122.434" stroke="#FF6464" stroke-width="2" stroke-linecap="round" stroke-linejoin="round"/>
</svg>
