<svg width="40" height="41" viewBox="0 0 40 41" fill="none" xmlns="http://www.w3.org/2000/svg">
<path d="M15.1386 20.6217C15.1386 17.8673 17.3722 15.6338 20.1283 15.6338C22.8843 15.6338 25.1192 17.8673 25.1192 20.6217C25.1192 23.3762 22.8843 25.6097 20.1283 25.6097C17.3722 25.6097 15.1386 23.3762 15.1386 20.6217ZM12.4406 20.6217C12.4406 24.8651 15.8823 28.3048 20.1283 28.3048C24.3742 28.3048 27.816 24.8651 27.816 20.6217C27.816 16.3784 24.3742 12.9386 20.1283 12.9386C15.8823 12.9386 12.4406 16.3784 12.4406 20.6217ZM26.3237 12.634C26.3236 12.9891 26.4288 13.3363 26.6261 13.6317C26.8234 13.927 27.1039 14.1573 27.4321 14.2933C27.7603 14.4293 28.1216 14.465 28.4701 14.3959C28.8186 14.3267 29.1388 14.1559 29.3902 13.9049C29.6415 13.6538 29.8128 13.334 29.8822 12.9857C29.9517 12.6375 29.9163 12.2764 29.7804 11.9483C29.6446 11.6201 29.4144 11.3396 29.119 11.1422C28.8237 10.9448 28.4764 10.8394 28.121 10.8392H28.1203C27.644 10.8394 27.1873 11.0286 26.8504 11.3651C26.5136 11.7016 26.3241 12.158 26.3237 12.634ZM14.0798 32.8009C12.6201 32.7345 11.8267 32.4915 11.2995 32.2862C10.6005 32.0142 10.1018 31.6903 9.57741 31.167C9.05305 30.6437 8.72847 30.1457 8.45754 29.4471C8.25201 28.9205 8.00887 28.1273 7.94252 26.6685C7.86994 25.0914 7.85545 24.6176 7.85545 20.6219C7.85545 16.6261 7.87114 16.1537 7.94252 14.5752C8.00899 13.1164 8.25393 12.3248 8.45754 11.7966C8.72966 11.098 9.05377 10.5996 9.57741 10.0755C10.1011 9.55148 10.5993 9.22709 11.2995 8.95633C11.8265 8.75092 12.6201 8.50793 14.0798 8.44162C15.6579 8.36908 16.1319 8.3546 20.1283 8.3546C24.1246 8.3546 24.5991 8.37028 26.1786 8.44162C27.6382 8.50805 28.4303 8.75284 28.9588 8.95633C29.6578 9.22709 30.1566 9.5522 30.6809 10.0755C31.2053 10.5989 31.5287 11.098 31.8008 11.7966C32.0063 12.3233 32.2495 13.1164 32.3158 14.5752C32.3884 16.1537 32.4029 16.6261 32.4029 20.6219C32.4029 24.6176 32.3884 25.09 32.3158 26.6685C32.2493 28.1273 32.005 28.9202 31.8008 29.4471C31.5287 30.1457 31.2046 30.6442 30.6809 31.167C30.1573 31.6899 29.6578 32.0142 28.9588 32.2862C28.4318 32.4916 27.6382 32.7346 26.1786 32.8009C24.6004 32.8735 24.1264 32.8879 20.1283 32.8879C16.1301 32.8879 15.6574 32.8735 14.0798 32.8009ZM13.9558 5.74979C12.362 5.82233 11.2729 6.0749 10.3218 6.44477C9.33679 6.82674 8.50293 7.33918 7.66968 8.17062C6.83642 9.00206 6.325 9.83673 5.9428 10.8211C5.57271 11.7723 5.31999 12.8601 5.24741 14.453C5.17363 16.0483 5.15674 16.5584 5.15674 20.6217C5.15674 24.6851 5.17363 25.1951 5.24741 26.7905C5.31999 28.3835 5.57271 29.4712 5.9428 30.4223C6.325 31.4062 6.83654 32.2418 7.66968 33.0729C8.50281 33.904 9.33679 34.4157 10.3218 34.7987C11.2747 35.1686 12.362 35.4212 13.9558 35.4937C15.553 35.5662 16.0625 35.5843 20.1283 35.5843C24.1941 35.5843 24.7044 35.5674 26.3007 35.4937C27.8947 35.4212 28.983 35.1686 29.9347 34.7987C30.9191 34.4157 31.7536 33.9043 32.5869 33.0729C33.4201 32.2414 33.9305 31.4062 34.3137 30.4223C34.6838 29.4712 34.9377 28.3834 35.0091 26.7905C35.0817 25.1939 35.0986 24.6851 35.0986 20.6217C35.0986 16.5584 35.0817 16.0483 35.0091 14.453C34.9365 12.86 34.6838 11.7717 34.3137 10.8211C33.9305 9.83733 33.4188 9.00337 32.5869 8.17062C31.7549 7.33786 30.9191 6.82674 29.9359 6.44477C28.983 6.0749 27.8945 5.82113 26.3019 5.74979C24.7056 5.67725 24.1953 5.65918 20.1295 5.65918C16.0637 5.65918 15.553 5.67606 13.9558 5.74979Z" fill="white"/>
<path d="M15.1386 20.6217C15.1386 17.8673 17.3722 15.6338 20.1283 15.6338C22.8843 15.6338 25.1192 17.8673 25.1192 20.6217C25.1192 23.3762 22.8843 25.6097 20.1283 25.6097C17.3722 25.6097 15.1386 23.3762 15.1386 20.6217ZM12.4406 20.6217C12.4406 24.8651 15.8823 28.3048 20.1283 28.3048C24.3742 28.3048 27.816 24.8651 27.816 20.6217C27.816 16.3784 24.3742 12.9386 20.1283 12.9386C15.8823 12.9386 12.4406 16.3784 12.4406 20.6217ZM26.3237 12.634C26.3236 12.9891 26.4288 13.3363 26.6261 13.6317C26.8234 13.927 27.1039 14.1573 27.4321 14.2933C27.7603 14.4293 28.1216 14.465 28.4701 14.3959C28.8186 14.3267 29.1388 14.1559 29.3902 13.9049C29.6415 13.6538 29.8128 13.334 29.8822 12.9857C29.9517 12.6375 29.9163 12.2764 29.7804 11.9483C29.6446 11.6201 29.4144 11.3396 29.119 11.1422C28.8237 10.9448 28.4764 10.8394 28.121 10.8392H28.1203C27.644 10.8394 27.1873 11.0286 26.8504 11.3651C26.5136 11.7016 26.3241 12.158 26.3237 12.634ZM14.0798 32.8009C12.6201 32.7345 11.8267 32.4915 11.2995 32.2862C10.6005 32.0142 10.1018 31.6903 9.57741 31.167C9.05305 30.6437 8.72847 30.1457 8.45754 29.4471C8.25201 28.9205 8.00887 28.1273 7.94252 26.6685C7.86994 25.0914 7.85545 24.6176 7.85545 20.6219C7.85545 16.6261 7.87114 16.1537 7.94252 14.5752C8.00899 13.1164 8.25393 12.3248 8.45754 11.7966C8.72966 11.098 9.05377 10.5996 9.57741 10.0755C10.1011 9.55148 10.5993 9.22709 11.2995 8.95633C11.8265 8.75092 12.6201 8.50793 14.0798 8.44162C15.6579 8.36908 16.1319 8.3546 20.1283 8.3546C24.1246 8.3546 24.5991 8.37028 26.1786 8.44162C27.6382 8.50805 28.4303 8.75284 28.9588 8.95633C29.6578 9.22709 30.1566 9.5522 30.6809 10.0755C31.2053 10.5989 31.5287 11.098 31.8008 11.7966C32.0063 12.3233 32.2495 13.1164 32.3158 14.5752C32.3884 16.1537 32.4029 16.6261 32.4029 20.6219C32.4029 24.6176 32.3884 25.09 32.3158 26.6685C32.2493 28.1273 32.005 28.9202 31.8008 29.4471C31.5287 30.1457 31.2046 30.6442 30.6809 31.167C30.1573 31.6899 29.6578 32.0142 28.9588 32.2862C28.4318 32.4916 27.6382 32.7346 26.1786 32.8009C24.6004 32.8735 24.1264 32.8879 20.1283 32.8879C16.1301 32.8879 15.6574 32.8735 14.0798 32.8009ZM13.9558 5.74979C12.362 5.82233 11.2729 6.0749 10.3218 6.44477C9.33679 6.82674 8.50293 7.33918 7.66968 8.17062C6.83642 9.00206 6.325 9.83673 5.9428 10.8211C5.57271 11.7723 5.31999 12.8601 5.24741 14.453C5.17363 16.0483 5.15674 16.5584 5.15674 20.6217C5.15674 24.6851 5.17363 25.1951 5.24741 26.7905C5.31999 28.3835 5.57271 29.4712 5.9428 30.4223C6.325 31.4062 6.83654 32.2418 7.66968 33.0729C8.50281 33.904 9.33679 34.4157 10.3218 34.7987C11.2747 35.1686 12.362 35.4212 13.9558 35.4937C15.553 35.5662 16.0625 35.5843 20.1283 35.5843C24.1941 35.5843 24.7044 35.5674 26.3007 35.4937C27.8947 35.4212 28.983 35.1686 29.9347 34.7987C30.9191 34.4157 31.7536 33.9043 32.5869 33.0729C33.4201 32.2414 33.9305 31.4062 34.3137 30.4223C34.6838 29.4712 34.9377 28.3834 35.0091 26.7905C35.0817 25.1939 35.0986 24.6851 35.0986 20.6217C35.0986 16.5584 35.0817 16.0483 35.0091 14.453C34.9365 12.86 34.6838 11.7717 34.3137 10.8211C33.9305 9.83733 33.4188 9.00337 32.5869 8.17062C31.7549 7.33786 30.9191 6.82674 29.9359 6.44477C28.983 6.0749 27.8945 5.82113 26.3019 5.74979C24.7056 5.67725 24.1953 5.65918 20.1295 5.65918C16.0637 5.65918 15.553 5.67606 13.9558 5.74979Z" fill="white"/>
</svg>