<svg width="40" height="41" viewBox="0 0 40 41" fill="none" xmlns="http://www.w3.org/2000/svg">
<path fill-rule="evenodd" clip-rule="evenodd" d="M7.36364 5.6499C6.14154 5.6499 5.15015 6.61111 5.15015 7.7953V33.4552C5.15015 34.6395 6.14166 35.5999 7.36364 35.5999H32.8867C34.1092 35.5999 35.1001 34.6394 35.1001 33.4548V7.7953C35.1001 6.61111 34.1092 5.6499 32.8867 5.6499H7.36364ZM14.2514 17.2306V30.7142H9.76968V17.2306H14.2514ZM14.5468 13.0606C14.5468 14.3546 13.574 15.39 12.0115 15.39L11.9821 15.3898C10.478 15.3898 9.50552 14.3545 9.50552 13.0605C9.50552 11.7372 10.5073 10.7307 12.0412 10.7307C13.574 10.7307 14.5176 11.7372 14.5468 13.0606ZM21.2135 30.7142H16.7321C16.7321 30.7142 16.7909 18.496 16.7324 17.2311H21.2139V19.1396C21.8096 18.221 22.8758 16.9145 25.253 16.9145C28.2016 16.9145 30.4123 18.8417 30.4123 22.9831V30.7142H25.931V23.5016C25.931 21.6888 25.282 20.4524 23.6607 20.4524C22.4224 20.4524 21.685 21.2862 21.3612 22.0917C21.2428 22.3792 21.2135 22.7827 21.2135 23.1851V30.7142Z" fill="white"/>
</svg>