<svg width="20" height="20" viewBox="0 0 20 20" fill="none" xmlns="http://www.w3.org/2000/svg">
<path d="M14.35 1.6665H7.46671C7.13337 1.6665 6.81669 1.78317 6.55835 1.98317L4.73335 3.44151C4.00002 4.02484 4.00002 5.13316 4.73335 5.71649L6.55835 7.17483C6.81669 7.38316 7.14171 7.4915 7.46671 7.4915H14.35C15.1583 7.4915 15.8083 6.8415 15.8083 6.03316V3.1165C15.8083 2.3165 15.1583 1.6665 14.35 1.6665Z" stroke="#D4D4D4" stroke-width="1.5" stroke-linecap="round" stroke-linejoin="round"/>
<path d="M5.66665 10H12.55C12.8833 10 13.2 10.1167 13.4583 10.3167L15.2833 11.775C16.0167 12.3583 16.0167 13.4667 15.2833 14.05L13.4583 15.5083C13.2 15.7167 12.875 15.825 12.55 15.825H5.66665C4.85831 15.825 4.20831 15.175 4.20831 14.3667V11.45C4.20831 10.65 4.85831 10 5.66665 10Z" stroke="#D4D4D4" stroke-width="1.5" stroke-linecap="round" stroke-linejoin="round"/>
<path d="M10 10V7.5" stroke="#D4D4D4" stroke-width="1.5" stroke-linecap="round" stroke-linejoin="round"/>
<path d="M10 18.3335V15.8335" stroke="#D4D4D4" stroke-width="1.5" stroke-linecap="round" stroke-linejoin="round"/>
<path d="M7.5 18.3335H12.5" stroke="#D4D4D4" stroke-width="1.5" stroke-linecap="round" stroke-linejoin="round"/>
</svg>