<svg width="24" height="25" viewBox="0 0 24 25" fill="none" xmlns="http://www.w3.org/2000/svg">
<path d="M12 20.7539H7C4 20.7539 2 19.2539 2 15.7539V8.75391C2 5.25391 4 3.75391 7 3.75391H17C20 3.75391 22 5.25391 22 8.75391V11.7539" stroke="#A0A0A0" stroke-width="1.5" stroke-miterlimit="10" stroke-linecap="round" stroke-linejoin="round"/>
<path d="M17 9.25391L13.87 11.7539C12.84 12.5739 11.15 12.5739 10.12 11.7539L7 9.25391" stroke="#A0A0A0" stroke-width="1.5" stroke-miterlimit="10" stroke-linecap="round" stroke-linejoin="round"/>
<path d="M19.21 15.0237L15.6701 18.5637C15.5301 18.7037 15.4 18.9637 15.37 19.1537L15.18 20.5037C15.11 20.9937 15.45 21.3337 15.94 21.2637L17.29 21.0737C17.48 21.0437 17.75 20.9137 17.88 20.7737L21.4201 17.2337C22.0301 16.6237 22.3201 15.9137 21.4201 15.0137C20.5301 14.1237 19.82 14.4137 19.21 15.0237Z" stroke="#A0A0A0" stroke-width="1.5" stroke-miterlimit="10" stroke-linecap="round" stroke-linejoin="round"/>
<path d="M18.7001 15.5337C19.0001 16.6137 19.8401 17.4537 20.9201 17.7537" stroke="#A0A0A0" stroke-width="1.5" stroke-miterlimit="10" stroke-linecap="round" stroke-linejoin="round"/>
</svg>