<svg width="40" height="41" viewBox="0 0 40 41" fill="none" xmlns="http://www.w3.org/2000/svg">
<path fill-rule="evenodd" clip-rule="evenodd" d="M35.1001 20.6249C35.1001 28.8954 28.3956 35.5999 20.1251 35.5999C11.8547 35.5999 5.15015 28.8954 5.15015 20.6249C5.15015 12.3544 11.8547 5.6499 20.1251 5.6499C28.3956 5.6499 35.1001 12.3544 35.1001 20.6249ZM21.5602 16.0299C18.9875 17.1411 11.5697 20.2969 11.5697 20.2969C9.81171 21.0081 10.8407 21.6748 10.8407 21.6748C10.8407 21.6748 12.3414 22.2082 13.6278 22.6082C14.9141 23.0083 15.6002 22.5638 15.6002 22.5638C15.6002 22.5638 18.6016 20.5192 21.6459 18.3412C23.7898 16.83 23.2753 18.0745 22.7607 18.6079C21.6459 19.7636 19.8022 21.5859 18.2586 23.0527C17.5726 23.675 17.9156 24.2084 18.2157 24.4751C19.0887 25.2408 21.1446 26.6333 22.0781 27.2655C22.3367 27.4407 22.5092 27.5575 22.5464 27.5864C22.7607 27.7643 23.9614 28.5643 24.6903 28.3865C25.4192 28.2087 25.5049 27.1864 25.5049 27.1864C25.5049 27.1864 26.0623 23.5417 26.5769 20.208C26.6722 19.5535 26.7675 18.9127 26.8563 18.3152C27.0873 16.7621 27.2748 15.5014 27.3058 15.052C27.4345 13.5408 25.8908 14.163 25.8908 14.163C25.8908 14.163 22.5464 15.5854 21.5602 16.0299Z" fill="white"/>
</svg>